<?xml version="1.0" encoding="utf-8"?>
<!-- Generator: Adobe Illustrator 22.0.0, SVG Export Plug-In . SVG Version: 6.00 Build 0)  -->
<svg version="1.1" id="图层_1" 
    xmlns="http://www.w3.org/2000/svg" 
    xmlns:xlink="http://www.w3.org/1999/xlink" x="0px" y="0px" viewBox="0 0 1258.6 493.2" style="enable-background:new 0 0 1258.6 493.2;" xml:space="preserve">
    <style type="text/css">
	.st0{fill:#FFFFFF;}
    </style>
    <g>
        <g>
            <path class="st0" d="M284.8,352.2c-4.1,19.4-17,65.8-21.1,91.6H8.2v-8.2c49.9-2.3,54-12.3,54-61.7V143.1
			c0-45.8-4.1-55.8-56.4-58.7v-8.2h145.6v8.2c-53.4,2.9-58.7,12.9-58.7,58.7v222.6c0,62.3,14.1,64,74,64c35.2,0,63.4-7,76.9-21.1
			c7.6-10.6,21.1-30.5,30.5-56.4H284.8z"/>
            <path class="st0" d="M315.4,435.6c51.1-2.3,55.8-12.3,55.8-58.7V143.1c0-45.8-4.7-55.8-55.8-58.7v-8.2h142.1v8.2
			c-50.5,2.9-55.8,12.9-55.8,58.7v233.7c0,46.4,5.3,56.4,55.8,58.7v8.2H315.4V435.6z"/>
            <path class="st0" d="M512.7,76.2h74.6l155,311.3L898,76.2h84.6v8.2c-54.6,5.3-59.9,11.2-57.6,69.9l4.1,208.5
			c1.8,60.5,4.1,68.1,59.3,72.8v8.2H844.5v-8.2c51.7-4.1,53.4-11.7,52.9-72.8L895,116.1h-2.3L733.5,437.4h-5.3L583.8,136.1h-1.2
			L575,294.7c-1.8,27.6-2.3,47.6-2.3,63.4c0,56.4,5.9,72.2,60.5,77.5v8.2H491.6v-8.2c36.4-2.9,48.7-12.9,53.4-36.4
			c4.1-17.6,8.8-52.9,12.9-113.3l8.2-107.5c0.6-15.9,1.2-28.8,1.2-39.3c0-41.7-10-49.3-54.6-54.6V76.2z"/>
            <path class="st0" d="M1228,161.3c-10-34.1-24.1-80.5-81-80.5c-42.3,0-63.4,27.6-63.4,65.8c0,49.3,35.8,68.7,74,88.1
			c25.8,12.9,98.1,38.2,98.1,111.6c0,61.1-47,105.1-121,106.3c-24.1-1.2-44.6-4.7-59.3-9.4c-14.1-4.7-21.7-8.8-25.3-11.2
			c-4.7-15.3-10.6-57.6-14.1-92.8h9.4c9.4,31.7,34.7,98.1,103.4,98.1c45.2,0,72.8-24.7,72.8-76.3c0-59.3-48.2-79.3-79.3-96.9
			c-5.3-2.9-91.6-30.5-91.6-102.2c0-48.7,39.9-94.6,109.2-94.6c19.4,0,36.4,1.8,68.7,12.3c2.3,20,5.3,41.7,9.4,81.6H1228z"/>
        </g>
    </g>
</svg>
